<?xml version="1.0" encoding="utf-8"?>
<!-- Generator: Adobe Illustrator 24.0.2, SVG Export Plug-In . SVG Version: 6.00 Build 0)  -->
<svg version="1.1" xmlns="http://www.w3.org/2000/svg" xmlns:xlink="http://www.w3.org/1999/xlink" x="0px" y="0px"
	 viewBox="0 0 1080 1080" style="enable-background:new 0 0 1080 1080;" xml:space="preserve">
<style type="text/css">
	.st0{fill:#1D0772;}
	.st1{fill:#9A3FD5;}
	.st2{fill:#4575D4;}
</style>
<g id="Capa_2">
</g>
<g id="Capa_1">
	<path class="st0" d="M788.46,862.36H288.77c-60.87,0-110.67-49.8-110.67-110.67V358.22c0-60.87,49.8-110.67,110.67-110.67h499.69
		c60.87,0,110.67,49.8,110.67,110.67V751.7C899.13,812.56,849.33,862.36,788.46,862.36z"/>
	<g>
		<path class="st1" d="M337.09,344.2c-5.71,0-10.87,3.6-15.47,10.78c-4.59,7.19-10.06,20.03-16.39,38.51
			c-3.51,10.27-7.13,16.69-10.85,19.26c-3.72,2.57-11.16,3.85-22.33,3.85c-9.92,0-14.89-2.77-14.89-8.32c0-1.43,0.41-4.21,1.23-8.32
			l15.71-79.49c1.23-6.16,2.98-10.06,5.24-11.71c2.26-1.64,5.85-2.46,10.78-2.46h196.58c5.96,0,9.55,0.77,10.78,2.31
			c1.23,1.54,1.85,6.32,1.85,14.33c0,9.45-0.56,15.41-1.7,17.87c-1.13,2.46-4.78,5.04-10.94,7.7c-9.04,3.9-13.66,7.81-13.87,11.71
			v384.22c0,8.22,5.65,14.69,16.95,19.41c7.39,3.29,11.09,8.53,11.09,15.71c0,11.3-0.72,18.13-2.16,20.49
			c-1.43,2.36-4.72,3.54-9.86,3.54H283.36c-6.98,0-11.14-1.28-12.48-3.85c-1.33-2.57-3.02-10.22-5.06-22.95l-11.43-69.94
			c-0.82-4.72-1.23-8.32-1.23-10.78c0-8.21,6.37-12.32,19.1-12.32c9.24,0,15.71,1.75,19.41,5.24c3.7,3.5,7.29,10.89,10.78,22.18
			c8.43,26.91,14.53,43.19,18.33,48.84c3.8,5.65,10.74,8.47,20.8,8.47h16.33V556.19h-24.03c-4.52,0-7.86,1.23-10.01,3.7
			c-2.16,2.46-4.36,9.14-6.62,20.03c-2.26,11.92-4.57,19.16-6.93,21.72c-2.36,2.57-7.03,3.85-14.02,3.85
			c-10.68,0-17.05-0.97-19.1-2.93c-2.05-1.95-3.08-6.11-3.08-12.48v-102.6c0-9.04,1.08-14.22,3.24-15.56c2.16-1.33,11.35-2,27.58-2
			c3.29,0,5.7,1.44,7.24,4.31c1.54,2.88,3.54,11.61,6.01,26.19c1.44,8.22,3.5,13.56,6.16,16.02c2.67,2.46,6.88,3.7,12.63,3.7h20.95
			V344.2H337.09z"/>
	</g>
	<g>
		<path class="st2" d="M737.42,520.14c37.59,13.15,63.47,29.43,77.65,48.84c14.17,19.41,21.26,46.17,21.26,80.27
			c0,51.97-13.05,90.69-39.13,116.16c-26.09,25.47-66.45,38.21-121.09,38.21H525.44c-6.16,0-9.24-3.18-9.24-9.55v-18.49
			c0-5.13,2.77-8.94,8.32-11.4c11.71-5.55,17.56-13.66,17.56-24.34v-371.9c0-5.13-0.82-8.63-2.46-10.48
			c-1.65-1.85-6.58-4.72-14.79-8.63c-4.11-1.85-6.52-3.9-7.24-6.16c-0.72-2.26-1.08-7.8-1.08-16.64c0-7.8,1.08-13.04,3.24-15.71
			c2.16-2.67,5.9-4.01,11.25-4.01h168.85c40.67,0,71.89,10.37,93.67,31.12c21.77,20.75,32.66,47.14,32.66,79.19
			c0,26.7-8.58,49.1-25.73,67.17C783.28,501.86,762.28,513.98,737.42,520.14z M656.7,341.12v161.76h16.33
			c10.27,0,18.33-2.98,24.19-8.94c5.86-5.96,9.24-15.87,10.17-29.73c0.92-13.87,1.39-31.38,1.39-52.53
			c0-29.58-2.83-48.73-8.47-57.46c-5.65-8.73-14.74-13.1-27.27-13.1H656.7z M656.7,538.01v230.17c18.9,0,31.58-2.57,38.05-7.7
			c6.47-5.13,10.27-15.3,11.4-30.5c1.13-15.2,1.7-40.87,1.7-77.03c0-7.39-0.31-24.19-0.92-50.38c-0.62-26.19-1.85-41.95-3.7-47.3
			c-1.85-5.34-5.08-9.55-9.71-12.63c-4.62-3.08-11.45-4.62-20.49-4.62H656.7z"/>
	</g>
</g>
</svg>
